<svg width="64" height="64" viewBox="0 0 64 64" fill="none" xmlns="http://www.w3.org/2000/svg">
<rect width="64" height="64" fill="#FF6636"/>
<path opacity="0.2" d="M21.9915 32H41.9915V34.5C41.9915 37.1522 40.9379 39.6957 39.0625 41.5711C37.1872 43.4464 34.6436 44.5 31.9915 44.5C29.3393 44.5 26.7958 43.4464 24.9204 41.5711C23.045 39.6957 21.9915 37.1522 21.9915 34.5V32Z" fill="white"/>
<path d="M41.9915 34.5C41.9915 37.1522 40.9379 39.6957 39.0625 41.5711C37.1872 43.4464 34.6436 44.5 31.9915 44.5C29.3393 44.5 26.7958 43.4464 24.9204 41.5711C23.045 39.6957 21.9915 37.1522 21.9915 34.5V29.5C21.9915 26.8478 23.045 24.3043 24.9204 22.4289C26.7958 20.5536 29.3393 19.5 31.9915 19.5C34.6436 19.5 37.1872 20.5536 39.0625 22.4289C40.9379 24.3043 41.9915 26.8478 41.9915 29.5V34.5Z" stroke="white" stroke-width="2" stroke-linecap="round" stroke-linejoin="round"/>
<path d="M41.9915 32H21.9915" stroke="white" stroke-width="2" stroke-linecap="round" stroke-linejoin="round"/>
<path d="M35.4915 27C35.7676 27 35.9915 27.2239 35.9915 27.5C35.9915 27.7761 35.7676 28 35.4915 28C35.2153 28 34.9915 27.7761 34.9915 27.5C34.9915 27.2239 35.2153 27 35.4915 27Z" fill="white" stroke="white" stroke-width="2"/>
<path d="M28.4915 27C28.7676 27 28.9915 27.2239 28.9915 27.5C28.9915 27.7761 28.7676 28 28.4915 28C28.2153 28 27.9915 27.7761 27.9915 27.5C27.9915 27.2239 28.2153 27 28.4915 27Z" fill="white" stroke="white" stroke-width="2"/>
<path d="M22.9915 19.5L25.5307 21.867" stroke="white" stroke-width="2" stroke-linecap="round" stroke-linejoin="round"/>
<path d="M40.9916 19.5L38.4522 21.8671" stroke="white" stroke-width="2" stroke-linecap="round" stroke-linejoin="round"/>
</svg>
