<svg width="64" height="64" viewBox="0 0 64 64" fill="none" xmlns="http://www.w3.org/2000/svg">
<rect width="64" height="64" fill="white"/>
<path opacity="0.2" d="M31.0006 23.0004L23.541 25.7977C23.3767 25.8593 23.2315 25.9631 23.12 26.0986C23.0085 26.2341 22.9346 26.3965 22.9057 26.5696L20.0006 44.0004L37.4313 41.0952C37.6044 41.0664 37.7669 40.9925 37.9024 40.881C38.0379 40.7695 38.1416 40.6243 38.2032 40.46L41.0006 33.0004L31.0006 23.0004ZM30.4999 35.9999C30.0054 35.9999 29.5221 35.8533 29.111 35.5786C28.6998 35.3039 28.3794 34.9135 28.1902 34.4566C28.001 33.9998 27.9515 33.4972 28.0479 33.0122C28.1444 32.5273 28.3825 32.0818 28.7321 31.7322C29.0817 31.3825 29.5272 31.1444 30.0122 31.048C30.4971 30.9515 30.9998 31.001 31.4566 31.1902C31.9134 31.3795 32.3039 31.6999 32.5786 32.111C32.8533 32.5221 32.9999 33.0055 32.9999 33.4999C32.9999 33.8282 32.9352 34.1533 32.8096 34.4566C32.6839 34.76 32.4998 35.0356 32.2677 35.2677C32.0355 35.4999 31.7599 35.684 31.4566 35.8096C31.1533 35.9353 30.8282 35.9999 30.4999 35.9999Z" fill="#FF6636"/>
<path d="M30.5 36C31.8807 36 33 34.8807 33 33.5C33 32.1193 31.8807 31 30.5 31C29.1193 31 28 32.1193 28 33.5C28 34.8807 29.1193 36 30.5 36Z" stroke="#FF6636" stroke-width="2" stroke-linecap="round" stroke-linejoin="round"/>
<path d="M20.0005 44.0005L28.732 35.2678" stroke="#FF6636" stroke-width="2" stroke-linecap="round" stroke-linejoin="round"/>
<path d="M20.0005 44.0004L37.4312 41.0952C37.6043 41.0664 37.7668 40.9925 37.9023 40.881C38.0377 40.7695 38.1415 40.6243 38.2031 40.46L41.0005 33.0004L31.0005 23.0004L23.5409 25.7977C23.3766 25.8593 23.2314 25.9631 23.1199 26.0986C23.0083 26.2341 22.9345 26.3966 22.9056 26.5697L20.0005 44.0004Z" stroke="#FF6636" stroke-width="2" stroke-linecap="round" stroke-linejoin="round"/>
<path d="M41.0005 33.0005L44.2934 29.7076C44.3862 29.6147 44.4599 29.5045 44.5102 29.3831C44.5604 29.2618 44.5863 29.1318 44.5863 29.0005C44.5863 28.8691 44.5604 28.7391 44.5102 28.6178C44.4599 28.4964 44.3862 28.3862 44.2934 28.2934L35.7076 19.7076C35.5201 19.52 35.2657 19.4147 35.0005 19.4147C34.7353 19.4147 34.4809 19.52 34.2934 19.7076L31.0005 23.0005" stroke="#FF6636" stroke-width="2" stroke-linecap="round" stroke-linejoin="round"/>
</svg>
