<svg width="64" height="64" viewBox="0 0 64 64" fill="none" xmlns="http://www.w3.org/2000/svg">
<rect width="64" height="64" fill="white"/>
<path opacity="0.2" d="M21.2795 21.3734C21.1305 21.3299 20.9734 21.3217 20.8206 21.3495C20.6679 21.3773 20.5237 21.4402 20.3995 21.5334C20.2753 21.6265 20.1745 21.7473 20.1051 21.8862C20.0357 22.025 19.9995 22.1781 19.9995 22.3334V39.6667C19.9995 39.822 20.0357 39.9751 20.1051 40.1139C20.1745 40.2528 20.2753 40.3736 20.3995 40.4667C20.5237 40.5599 20.6679 40.6228 20.8206 40.6506C20.9734 40.6783 21.1305 40.6702 21.2795 40.6267L33.0002 37.2082V24.7919L21.2795 21.3734Z" fill="#564FFD"/>
<path d="M19.9995 22.3334V39.6667C19.9995 39.822 20.0357 39.9751 20.1051 40.1139C20.1745 40.2528 20.2753 40.3736 20.3995 40.4667C20.5237 40.5599 20.6679 40.6228 20.8206 40.6506C20.9734 40.6783 21.1305 40.6702 21.2795 40.6267L43.2795 34.21C43.4872 34.1495 43.6697 34.0231 43.7995 33.85C43.9293 33.6769 43.9995 33.4664 43.9995 33.25V28.75C43.9995 28.5337 43.9293 28.3231 43.7995 28.15C43.6697 27.9769 43.4872 27.8506 43.2795 27.79L21.2795 21.3734C21.1305 21.3299 20.9734 21.3217 20.8206 21.3495C20.6679 21.3773 20.5237 21.4402 20.3995 21.5334C20.2753 21.6265 20.1745 21.7473 20.1051 21.8862C20.0357 22.025 19.9995 22.1781 19.9995 22.3334V22.3334Z" stroke="#564FFD" stroke-width="2" stroke-linecap="round" stroke-linejoin="round"/>
<path d="M39 35.4581V40C39 40.2652 38.8946 40.5196 38.7071 40.7071C38.5196 40.8946 38.2652 41 38 41H34C33.7348 41 33.4804 40.8946 33.2929 40.7071C33.1054 40.5196 33 40.2652 33 40V24.7919" stroke="#564FFD" stroke-width="2" stroke-linecap="round" stroke-linejoin="round"/>
</svg>
